<?xml version="1.0" standalone="no"?>
<!DOCTYPE svg PUBLIC "-//W3C//DTD SVG 20010904//EN"
 "http://www.w3.org/TR/2001/REC-SVG-20010904/DTD/svg10.dtd">
<svg version="1.0" xmlns="http://www.w3.org/2000/svg"
 width="1178.000000pt" height="1178.000000pt" viewBox="0 0 1178.000000 1178.000000"
 preserveAspectRatio="xMidYMid meet">
<metadata>
Created by potrace 1.14, written by Peter Selinger 2001-2017
</metadata>
<g transform="translate(0.000000,1178.000000) scale(0.100000,-0.100000)"
fill="#000000" stroke="none">
<path d="M2937 10424 c-1 -1 -49 -5 -107 -8 -112 -7 -123 -9 -240 -27 -41 -6
-84 -13 -95 -14 -11 -2 -63 -13 -115 -25 -52 -11 -103 -23 -113 -25 -10 -2
-71 -21 -135 -41 -519 -164 -976 -458 -1352 -870 -103 -112 -269 -338 -345
-469 -16 -27 -37 -63 -47 -80 -20 -36 -97 -191 -126 -255 -82 -183 -166 -451
-198 -630 -3 -17 -17 -83 -19 -90 -1 -3 -5 -34 -9 -70 -5 -36 -10 -74 -12 -84
-23 -126 -23 -550 1 -723 12 -87 16 -112 26 -168 9 -53 15 -87 35 -175 10 -47
45 -175 51 -190 8 -18 6 -14 22 -70 41 -145 176 -435 289 -620 173 -285 418
-566 681 -783 76 -62 282 -205 357 -248 19 -10 51 -29 71 -40 197 -112 557
-257 732 -294 9 -2 45 -10 81 -19 36 -8 81 -18 100 -21 19 -3 60 -10 90 -15
170 -28 262 -35 500 -34 257 0 317 5 540 44 205 36 250 48 455 116 241 80 550
236 732 369 168 122 205 152 308 245 144 130 175 170 223 287 l27 68 3 760 c2
499 -1 776 -8 808 -31 146 -140 271 -280 323 -64 23 -201 25 -276 4 -142 -39
-241 -133 -289 -275 -16 -45 -18 -116 -19 -708 -1 -449 -4 -660 -12 -665 -5
-4 -46 -34 -90 -68 -114 -88 -200 -142 -334 -210 -87 -44 -230 -105 -230 -97
0 3 -6 1 -12 -5 -26 -20 -276 -84 -418 -106 -161 -25 -502 -26 -633 -1 -15 2
-55 10 -90 16 -80 14 -282 67 -327 86 -19 8 -42 16 -50 18 -8 2 -49 18 -90 36
-180 80 -358 188 -521 319 -122 97 -355 354 -415 458 -10 17 -22 32 -26 32 -4
0 -8 4 -8 10 0 5 -15 33 -34 62 -46 73 -139 266 -175 365 -86 235 -133 495
-133 743 0 91 8 227 17 280 2 14 7 45 10 70 49 348 214 719 450 1015 132 165
317 335 480 442 39 25 82 54 97 65 103 70 380 187 551 233 197 53 316 68 547
69 227 1 293 -4 466 -38 230 -45 520 -167 731 -309 62 -41 119 -81 127 -89 8
-7 32 -26 53 -43 21 -16 63 -53 93 -81 30 -29 73 -69 95 -89 166 -153 436
-142 606 25 139 135 176 316 99 487 -25 57 -49 86 -133 168 -421 412 -950 685
-1547 800 -8 1 -40 6 -70 10 -30 4 -62 9 -71 10 -29 6 -112 14 -199 21 -73 6
-338 12 -343 8z"/>
<path d="M5953 7334 c-160 -33 -296 -165 -332 -325 -7 -29 -11 -938 -11 -2653
0 -2931 -7 -2682 75 -2806 84 -127 213 -193 374 -192 81 1 167 22 221 55 48
28 130 97 220 185 41 41 200 196 354 345 153 150 315 308 360 352 147 143 639
621 738 717 53 51 224 217 380 369 155 152 322 314 369 360 48 46 210 204 360
351 151 146 317 307 369 358 52 51 221 215 375 365 154 150 322 314 373 363
50 49 221 215 378 368 157 153 325 317 372 363 152 146 643 624 695 676 62 62
114 141 133 203 17 57 19 175 4 234 -54 199 -238 331 -448 322 -163 -7 -223
-42 -442 -254 -52 -51 -201 -195 -330 -320 -129 -125 -269 -261 -312 -301 -42
-41 -183 -178 -315 -306 -131 -127 -274 -266 -318 -308 -44 -43 -192 -186
-330 -320 -137 -133 -279 -271 -315 -305 -36 -34 -173 -168 -306 -296 -132
-129 -277 -269 -321 -312 -45 -42 -190 -183 -323 -312 -134 -129 -277 -269
-320 -310 -43 -41 -184 -178 -315 -305 -130 -126 -272 -263 -314 -304 -42 -40
-183 -177 -314 -305 -131 -127 -242 -232 -246 -234 -4 -1 -8 917 -8 2040 0
1124 -3 2063 -7 2088 -38 248 -271 406 -523 354z"/>
</g>
</svg>
